<svg width="158" height="32" viewBox="0 0 158 32" fill="none" xmlns="http://www.w3.org/2000/svg">
<path d="M28.043 0H3.95703C1.77162 0 0 1.77162 0 3.95703V28.043C0 30.2284 1.77162 32 3.95703 32H28.043C30.2284 32 32 30.2284 32 28.043V3.95703C32 1.77162 30.2284 0 28.043 0Z" fill="#DC2626"/>
<path d="M10.2939 24.3219C9.4516 24.3219 8.6887 24.1144 8.0051 23.6994C7.33373 23.2843 6.80273 22.6862 6.41211 21.9049C6.02148 21.1115 5.82617 20.1777 5.82617 19.1034C5.82617 17.248 6.2229 15.5329 7.01635 13.9582C7.8098 12.3713 8.9817 11.1018 10.532 10.1496C12.0822 9.1853 13.9438 8.7031 16.1166 8.7031C16.6781 8.7031 17.2763 8.7458 17.9111 8.8313C18.558 8.9167 19.144 9.0449 19.6689 9.2158C20.0106 9.3135 20.1815 9.5576 20.1815 9.9482C20.1815 10.2656 20.0595 10.5647 19.8153 10.8454C19.5834 11.1262 19.3087 11.2666 18.9914 11.2666C18.8937 11.2666 18.8205 11.2605 18.7716 11.2483C18.1369 11.1018 17.5937 10.998 17.142 10.937C16.6904 10.8638 16.2143 10.8271 15.7138 10.8271C14.1635 10.8271 12.8452 11.2055 11.7587 11.9624C10.6723 12.707 9.8606 13.6958 9.3235 14.9287C8.7864 16.1616 8.5178 17.4921 8.5178 18.9203C8.5178 19.9579 8.7192 20.7636 9.122 21.3373C9.5371 21.8988 10.0742 22.1796 10.7334 22.1796C11.478 22.1796 12.1311 21.8744 12.6926 21.2641C13.2541 20.6537 13.7668 19.665 14.2307 18.2978C14.6945 16.9306 15.1523 15.0752 15.6039 12.7314C15.6772 12.3896 15.8237 12.1577 16.0434 12.0356C16.2631 11.9136 16.5561 11.8525 16.9223 11.8525C17.789 11.8525 18.2223 12.1333 18.2223 12.6948C18.2223 12.7925 18.204 12.9145 18.1674 13.061C17.85 14.2451 17.5571 15.5573 17.2885 16.9977C17.0322 18.426 16.904 19.5124 16.904 20.257C16.904 20.9162 17.0016 21.3984 17.1969 21.7035C17.3923 21.9965 17.6913 22.143 18.0942 22.143C18.4848 22.143 18.8571 22.0148 19.2111 21.7585C19.5651 21.4899 20.0106 21.0382 20.5478 20.4035C20.6942 20.2326 20.859 20.1471 21.0421 20.1471C21.2008 20.1471 21.3229 20.2204 21.4083 20.3669C21.506 20.5133 21.5548 20.7148 21.5548 20.9711C21.5548 21.4472 21.4389 21.8256 21.2069 22.1064C20.6088 22.8266 20.0229 23.3759 19.4491 23.7543C18.8754 24.1327 18.1735 24.3219 17.3434 24.3219C16.4889 24.3219 15.7992 24.0778 15.2743 23.5895C14.7495 23.089 14.4199 22.3871 14.2856 21.4838C13.3823 23.3759 12.0517 24.3219 10.2939 24.3219Z" fill="#F7F7F9"/>
<path d="M24.6277 24.3219C24.0906 24.3219 23.6816 24.1754 23.4009 23.8825C23.1323 23.5895 22.9981 23.205 22.9981 22.7289C22.9981 22.1796 23.1506 21.7401 23.4558 21.4106C23.7732 21.081 24.2126 20.9162 24.7742 20.9162C25.3113 20.9162 25.7141 21.0505 25.9827 21.319C26.2634 21.5754 26.4038 21.9599 26.4038 22.4726C26.4038 23.0341 26.2451 23.4857 25.9277 23.8275C25.6103 24.1571 25.177 24.3219 24.6277 24.3219Z" fill="#F7F7F9"/>
<path d="M51.091 21.237H43.3795L42.0545 25H38.901L45.4995 6.556H48.9975L55.596 25H52.416L51.091 21.237ZM50.243 18.7725L47.2485 10.213L44.2275 18.7725H50.243ZM57.458 17.686C57.458 16.1843 57.7584 14.8682 58.359 13.7375C58.9774 12.5892 59.8254 11.7058 60.903 11.0875C61.9807 10.4692 63.2174 10.16 64.613 10.16C66.3797 10.16 67.8372 10.584 68.9855 11.432C70.1515 12.2623 70.9377 13.4548 71.344 15.0095H68.0845C67.8195 14.2852 67.3955 13.7198 66.8125 13.3135C66.2295 12.9072 65.4964 12.704 64.613 12.704C63.3764 12.704 62.387 13.1457 61.645 14.029C60.9207 14.8947 60.5585 16.1137 60.5585 17.686C60.5585 19.2583 60.9207 20.4862 61.645 21.3695C62.387 22.2528 63.3764 22.6945 64.613 22.6945C66.362 22.6945 67.5192 21.926 68.0845 20.389H71.344C70.92 21.873 70.125 23.0567 68.959 23.94C67.793 24.8057 66.3444 25.2385 64.613 25.2385C63.2174 25.2385 61.9807 24.9293 60.903 24.311C59.8254 23.675 58.9774 22.7917 58.359 21.661C57.7584 20.5127 57.458 19.1877 57.458 17.686ZM92.0302 10.16C93.1785 10.16 94.2032 10.3985 95.1042 10.8755C96.0229 11.3525 96.7384 12.0592 97.2507 12.9955C97.7807 13.9318 98.0457 15.0625 98.0457 16.3875V25H95.0512V16.838C95.0512 15.5307 94.7244 14.5325 94.0707 13.8435C93.417 13.1368 92.5249 12.7835 91.3942 12.7835C90.2635 12.7835 89.3625 13.1368 88.6912 13.8435C88.0375 14.5325 87.7107 15.5307 87.7107 16.838V25H84.7162V16.838C84.7162 15.5307 84.3894 14.5325 83.7357 13.8435C83.082 13.1368 82.1899 12.7835 81.0592 12.7835C79.9285 12.7835 79.0275 13.1368 78.3562 13.8435C77.7025 14.5325 77.3757 15.5307 77.3757 16.838V25H74.3547V10.3985H77.3757V12.068C77.8704 11.4673 78.4975 10.9992 79.2572 10.6635C80.0169 10.3278 80.8295 10.16 81.6952 10.16C82.8612 10.16 83.9035 10.4073 84.8222 10.902C85.7409 11.3967 86.4475 12.1122 86.9422 13.0485C87.3839 12.1652 88.0729 11.4673 89.0092 10.955C89.9455 10.425 90.9525 10.16 92.0302 10.16ZM115.272 17.3415C115.272 17.8892 115.237 18.3838 115.166 18.8255H104.01C104.098 19.9915 104.531 20.9278 105.308 21.6345C106.086 22.3412 107.04 22.6945 108.17 22.6945C109.796 22.6945 110.944 22.0143 111.615 20.654H114.875C114.433 21.9967 113.629 23.1008 112.463 23.9665C111.315 24.8145 109.884 25.2385 108.17 25.2385C106.775 25.2385 105.52 24.9293 104.407 24.311C103.312 23.675 102.446 22.7917 101.81 21.661C101.192 20.5127 100.883 19.1877 100.883 17.686C100.883 16.1843 101.183 14.8682 101.784 13.7375C102.402 12.5892 103.259 11.7058 104.354 11.0875C105.467 10.4692 106.739 10.16 108.17 10.16C109.548 10.16 110.776 10.4603 111.854 11.061C112.932 11.6617 113.771 12.5097 114.371 13.605C114.972 14.6827 115.272 15.9282 115.272 17.3415ZM112.119 16.3875C112.101 15.2745 111.704 14.3823 110.926 13.711C110.149 13.0397 109.186 12.704 108.038 12.704C106.996 12.704 106.103 13.0397 105.361 13.711C104.619 14.3647 104.178 15.2568 104.036 16.3875H112.119ZM136.233 21.237H128.521L127.196 25H124.043L130.641 6.556H134.139L140.738 25H137.558L136.233 21.237ZM135.385 18.7725L132.39 10.213L129.369 18.7725H135.385ZM145.144 8.464C144.596 8.464 144.137 8.2785 143.766 7.9075C143.395 7.5365 143.209 7.07717 143.209 6.5295C143.209 5.98183 143.395 5.5225 143.766 5.1515C144.137 4.7805 144.596 4.595 145.144 4.595C145.674 4.595 146.124 4.7805 146.495 5.1515C146.866 5.5225 147.052 5.98183 147.052 6.5295C147.052 7.07717 146.866 7.5365 146.495 7.9075C146.124 8.2785 145.674 8.464 145.144 8.464ZM146.628 10.3985V25H143.607V10.3985H146.628ZM153.615 12.5185C154.057 11.7765 154.64 11.2023 155.364 10.796C156.106 10.372 156.98 10.16 157.987 10.16V13.287H157.219C156.035 13.287 155.134 13.5873 154.516 14.188C153.915 14.7887 153.615 15.831 153.615 17.315V25H150.594V10.3985H153.615V12.5185Z" fill="#DC2626"/>
</svg>
