<svg width="32" height="32" viewBox="0 0 32 32" fill="none" xmlns="http://www.w3.org/2000/svg">
<rect width="32" height="32" rx="3.95703" fill="#DC2626"/>
<path d="M10.2939 24.3219C9.45164 24.3219 8.6887 24.1144 8.00511 23.6994C7.33373 23.2843 6.80273 22.6862 6.41211 21.9049C6.02148 21.1115 5.82617 20.1777 5.82617 19.1034C5.82617 17.248 6.2229 15.5329 7.01635 13.9582C7.8098 12.3713 8.98167 11.1018 10.532 10.1496C12.0822 9.1853 13.9438 8.70312 16.1166 8.70312C16.6781 8.70312 17.2763 8.74585 17.9111 8.8313C18.558 8.91675 19.144 9.04492 19.6689 9.21582C20.0106 9.31347 20.1815 9.55761 20.1815 9.94823C20.1815 10.2656 20.0595 10.5647 19.8153 10.8454C19.5834 11.1262 19.3087 11.2666 18.9914 11.2666C18.8937 11.2666 18.8205 11.2605 18.7716 11.2483C18.1369 11.1018 17.5937 10.998 17.142 10.937C16.6904 10.8638 16.2143 10.8271 15.7138 10.8271C14.1635 10.8271 12.8452 11.2055 11.7587 11.9624C10.6723 12.707 9.86057 13.6958 9.32346 14.9287C8.78636 16.1616 8.5178 17.4921 8.5178 18.9203C8.5178 19.9579 8.71922 20.7636 9.12205 21.3373C9.53708 21.8988 10.0742 22.1796 10.7334 22.1796C11.478 22.1796 12.1311 21.8744 12.6926 21.2641C13.2541 20.6537 13.7668 19.665 14.2307 18.2978C14.6945 16.9306 15.1523 15.0752 15.6039 12.7314C15.6772 12.3896 15.8237 12.1577 16.0434 12.0356C16.2631 11.9136 16.5561 11.8525 16.9223 11.8525C17.789 11.8525 18.2223 12.1333 18.2223 12.6948C18.2223 12.7925 18.204 12.9145 18.1674 13.061C17.85 14.2451 17.557 15.5573 17.2885 16.9977C17.0322 18.426 16.904 19.5124 16.904 20.257C16.904 20.9162 17.0016 21.3984 17.1969 21.7035C17.3923 21.9965 17.6913 22.143 18.0942 22.143C18.4848 22.143 18.8571 22.0148 19.2111 21.7585C19.5651 21.4899 20.0106 21.0382 20.5478 20.4035C20.6942 20.2326 20.859 20.1471 21.0421 20.1471C21.2008 20.1471 21.3229 20.2204 21.4083 20.3669C21.506 20.5133 21.5548 20.7148 21.5548 20.9711C21.5548 21.4472 21.4389 21.8256 21.2069 22.1064C20.6088 22.8266 20.0229 23.3759 19.4491 23.7543C18.8754 24.1327 18.1735 24.3219 17.3434 24.3219C16.4889 24.3219 15.7992 24.0778 15.2744 23.5895C14.7495 23.089 14.4199 22.3871 14.2856 21.4838C13.3823 23.3759 12.0517 24.3219 10.2939 24.3219Z" fill="#F7F7F9"/>
<path d="M24.6277 24.3219C24.0906 24.3219 23.6816 24.1754 23.4009 23.8825C23.1323 23.5895 22.9981 23.205 22.9981 22.7289C22.9981 22.1796 23.1506 21.7401 23.4558 21.4106C23.7732 21.081 24.2127 20.9162 24.7742 20.9162C25.3113 20.9162 25.7141 21.0505 25.9827 21.319C26.2634 21.5754 26.4038 21.9599 26.4038 22.4726C26.4038 23.0341 26.2451 23.4857 25.9277 23.8275C25.6103 24.1571 25.177 24.3219 24.6277 24.3219Z" fill="#F7F7F9"/>
</svg>
