<svg width="237" height="32" viewBox="0 0 237 32" fill="none" xmlns="http://www.w3.org/2000/svg">
<path d="M28.043 0H3.95703C1.77162 0 0 1.77162 0 3.95703V28.043C0 30.2284 1.77162 32 3.95703 32H28.043C30.2284 32 32 30.2284 32 28.043V3.95703C32 1.77162 30.2284 0 28.043 0Z" fill="#4597FF"/>
<path d="M10.2939 24.3219C9.4516 24.3219 8.6887 24.1144 8.0051 23.6994C7.33373 23.2843 6.80273 22.6862 6.41211 21.9049C6.02148 21.1115 5.82617 20.1777 5.82617 19.1034C5.82617 17.248 6.2229 15.5329 7.01635 13.9582C7.8098 12.3713 8.9817 11.1018 10.532 10.1496C12.0822 9.18529 13.9438 8.70309 16.1166 8.70309C16.6781 8.70309 17.2763 8.74579 17.9111 8.83129C18.558 8.91669 19.144 9.04489 19.6689 9.21579C20.0106 9.31349 20.1815 9.55759 20.1815 9.94819C20.1815 10.2656 20.0595 10.5647 19.8153 10.8454C19.5834 11.1262 19.3087 11.2666 18.9914 11.2666C18.8937 11.2666 18.8205 11.2605 18.7716 11.2483C18.1369 11.1018 17.5937 10.998 17.142 10.937C16.6904 10.8638 16.2143 10.8271 15.7138 10.8271C14.1635 10.8271 12.8452 11.2055 11.7587 11.9624C10.6723 12.707 9.8606 13.6958 9.3235 14.9287C8.7864 16.1616 8.5178 17.4921 8.5178 18.9203C8.5178 19.9579 8.7192 20.7636 9.122 21.3373C9.5371 21.8988 10.0742 22.1796 10.7334 22.1796C11.478 22.1796 12.1311 21.8744 12.6926 21.2641C13.2541 20.6537 13.7668 19.665 14.2307 18.2978C14.6945 16.9306 15.1523 15.0752 15.6039 12.7314C15.6772 12.3896 15.8237 12.1577 16.0434 12.0356C16.2631 11.9136 16.5561 11.8525 16.9223 11.8525C17.789 11.8525 18.2223 12.1333 18.2223 12.6948C18.2223 12.7925 18.204 12.9145 18.1674 13.061C17.85 14.2451 17.5571 15.5573 17.2885 16.9977C17.0322 18.426 16.904 19.5124 16.904 20.257C16.904 20.9162 17.0016 21.3984 17.1969 21.7035C17.3923 21.9965 17.6913 22.143 18.0942 22.143C18.4848 22.143 18.8571 22.0148 19.2111 21.7585C19.5651 21.4899 20.0106 21.0382 20.5478 20.4035C20.6942 20.2326 20.859 20.1471 21.0421 20.1471C21.2008 20.1471 21.3229 20.2204 21.4083 20.3669C21.506 20.5133 21.5548 20.7148 21.5548 20.9711C21.5548 21.4472 21.4389 21.8256 21.2069 22.1064C20.6088 22.8266 20.0229 23.3759 19.4491 23.7543C18.8754 24.1327 18.1735 24.3219 17.3434 24.3219C16.4889 24.3219 15.7992 24.0778 15.2743 23.5895C14.7495 23.089 14.4199 22.3871 14.2856 21.4838C13.3823 23.3759 12.0517 24.3219 10.2939 24.3219Z" fill="#F7F7F9"/>
<path d="M24.6277 24.3219C24.0906 24.3219 23.6816 24.1754 23.4009 23.8825C23.1323 23.5895 22.9981 23.205 22.9981 22.7289C22.9981 22.1796 23.1506 21.7401 23.4558 21.4106C23.7732 21.081 24.2126 20.9162 24.7742 20.9162C25.3113 20.9162 25.7141 21.0505 25.9827 21.319C26.2634 21.5754 26.4038 21.9599 26.4038 22.4726C26.4038 23.0341 26.2451 23.4857 25.9277 23.8275C25.6103 24.1571 25.177 24.3219 24.6277 24.3219Z" fill="#F7F7F9"/>
<path d="M51.091 21.237H43.3795L42.0545 25H38.901L45.4995 6.556H48.9975L55.596 25H52.416L51.091 21.237ZM50.243 18.7725L47.2485 10.213L44.2275 18.7725H50.243ZM57.458 17.686C57.458 16.1843 57.7584 14.8682 58.359 13.7375C58.9774 12.5892 59.8254 11.7058 60.903 11.0875C61.9807 10.4692 63.2174 10.16 64.613 10.16C66.3797 10.16 67.8372 10.584 68.9855 11.432C70.1515 12.2623 70.9377 13.4548 71.344 15.0095H68.0845C67.8195 14.2852 67.3955 13.7198 66.8125 13.3135C66.2295 12.9072 65.4964 12.704 64.613 12.704C63.3764 12.704 62.387 13.1457 61.645 14.029C60.9207 14.8947 60.5585 16.1137 60.5585 17.686C60.5585 19.2583 60.9207 20.4862 61.645 21.3695C62.387 22.2528 63.3764 22.6945 64.613 22.6945C66.362 22.6945 67.5192 21.926 68.0845 20.389H71.344C70.92 21.873 70.125 23.0567 68.959 23.94C67.793 24.8057 66.3444 25.2385 64.613 25.2385C63.2174 25.2385 61.9807 24.9293 60.903 24.311C59.8254 23.675 58.9774 22.7917 58.359 21.661C57.7584 20.5127 57.458 19.1877 57.458 17.686ZM92.0302 10.16C93.1785 10.16 94.2032 10.3985 95.1042 10.8755C96.0229 11.3525 96.7384 12.0592 97.2507 12.9955C97.7807 13.9318 98.0457 15.0625 98.0457 16.3875V25H95.0512V16.838C95.0512 15.5307 94.7244 14.5325 94.0707 13.8435C93.417 13.1368 92.5249 12.7835 91.3942 12.7835C90.2635 12.7835 89.3625 13.1368 88.6912 13.8435C88.0375 14.5325 87.7107 15.5307 87.7107 16.838V25H84.7162V16.838C84.7162 15.5307 84.3894 14.5325 83.7357 13.8435C83.082 13.1368 82.1899 12.7835 81.0592 12.7835C79.9285 12.7835 79.0275 13.1368 78.3562 13.8435C77.7025 14.5325 77.3757 15.5307 77.3757 16.838V25H74.3547V10.3985H77.3757V12.068C77.8704 11.4673 78.4975 10.9992 79.2572 10.6635C80.0169 10.3278 80.8295 10.16 81.6952 10.16C82.8612 10.16 83.9035 10.4073 84.8222 10.902C85.7409 11.3967 86.4475 12.1122 86.9422 13.0485C87.3839 12.1652 88.0729 11.4673 89.0092 10.955C89.9455 10.425 90.9525 10.16 92.0302 10.16ZM115.272 17.3415C115.272 17.8892 115.237 18.3838 115.166 18.8255H104.01C104.098 19.9915 104.531 20.9278 105.308 21.6345C106.086 22.3412 107.04 22.6945 108.17 22.6945C109.796 22.6945 110.944 22.0143 111.615 20.654H114.875C114.433 21.9967 113.629 23.1008 112.463 23.9665C111.315 24.8145 109.884 25.2385 108.17 25.2385C106.775 25.2385 105.52 24.9293 104.407 24.311C103.312 23.675 102.446 22.7917 101.81 21.661C101.192 20.5127 100.883 19.1877 100.883 17.686C100.883 16.1843 101.183 14.8682 101.784 13.7375C102.402 12.5892 103.259 11.7058 104.354 11.0875C105.467 10.4692 106.739 10.16 108.17 10.16C109.548 10.16 110.776 10.4603 111.854 11.061C112.932 11.6617 113.771 12.5097 114.371 13.605C114.972 14.6827 115.272 15.9282 115.272 17.3415ZM112.119 16.3875C112.101 15.2745 111.704 14.3823 110.926 13.711C110.149 13.0397 109.186 12.704 108.038 12.704C106.996 12.704 106.103 13.0397 105.361 13.711C104.619 14.3647 104.178 15.2568 104.036 16.3875H112.119ZM124.122 15.7515C124.122 13.9495 124.537 12.333 125.368 10.902C126.216 9.471 127.355 8.358 128.786 7.563C130.235 6.75033 131.816 6.344 133.53 6.344C135.491 6.344 137.231 6.82983 138.75 7.8015C140.287 8.7555 141.4 10.1158 142.089 11.8825H138.459C137.982 10.9108 137.319 10.1865 136.471 9.7095C135.623 9.2325 134.643 8.994 133.53 8.994C132.311 8.994 131.224 9.26783 130.27 9.8155C129.316 10.3632 128.565 11.1493 128.018 12.174C127.488 13.1987 127.223 14.3912 127.223 15.7515C127.223 17.1118 127.488 18.3043 128.018 19.329C128.565 20.3537 129.316 21.1487 130.27 21.714C131.224 22.2617 132.311 22.5355 133.53 22.5355C134.643 22.5355 135.623 22.297 136.471 21.82C137.319 21.343 137.982 20.6187 138.459 19.647H142.089C141.4 21.4137 140.287 22.774 138.75 23.728C137.231 24.682 135.491 25.159 133.53 25.159C131.798 25.159 130.217 24.7615 128.786 23.9665C127.355 23.1538 126.216 22.032 125.368 20.601C124.537 19.17 124.122 17.5535 124.122 15.7515ZM151.959 25.2385C150.581 25.2385 149.335 24.9293 148.222 24.311C147.109 23.675 146.235 22.7917 145.599 21.661C144.963 20.5127 144.645 19.1877 144.645 17.686C144.645 16.202 144.972 14.8858 145.625 13.7375C146.279 12.5892 147.171 11.7058 148.302 11.0875C149.432 10.4692 150.696 10.16 152.091 10.16C153.487 10.16 154.75 10.4692 155.881 11.0875C157.011 11.7058 157.904 12.5892 158.557 13.7375C159.211 14.8858 159.538 16.202 159.538 17.686C159.538 19.17 159.202 20.4862 158.531 21.6345C157.859 22.7828 156.941 23.675 155.775 24.311C154.626 24.9293 153.354 25.2385 151.959 25.2385ZM151.959 22.615C152.736 22.615 153.46 22.4295 154.132 22.0585C154.821 21.6875 155.377 21.131 155.801 20.389C156.225 19.647 156.437 18.746 156.437 17.686C156.437 16.626 156.234 15.7338 155.828 15.0095C155.421 14.2675 154.883 13.711 154.211 13.34C153.54 12.969 152.816 12.7835 152.038 12.7835C151.261 12.7835 150.537 12.969 149.865 13.34C149.212 13.711 148.69 14.2675 148.302 15.0095C147.913 15.7338 147.719 16.626 147.719 17.686C147.719 19.2583 148.116 20.4773 148.911 21.343C149.724 22.191 150.74 22.615 151.959 22.615ZM169.891 10.16C171.039 10.16 172.064 10.3985 172.965 10.8755C173.884 11.3525 174.599 12.0592 175.112 12.9955C175.624 13.9318 175.88 15.0625 175.88 16.3875V25H172.886V16.838C172.886 15.5307 172.559 14.5325 171.905 13.8435C171.251 13.1368 170.359 12.7835 169.229 12.7835C168.098 12.7835 167.197 13.1368 166.526 13.8435C165.872 14.5325 165.545 15.5307 165.545 16.838V25H162.524V10.3985H165.545V12.068C166.04 11.4673 166.667 10.9992 167.427 10.6635C168.204 10.3278 169.025 10.16 169.891 10.16ZM187.101 10.16C188.249 10.16 189.274 10.3985 190.175 10.8755C191.093 11.3525 191.809 12.0592 192.321 12.9955C192.833 13.9318 193.09 15.0625 193.09 16.3875V25H190.095V16.838C190.095 15.5307 189.768 14.5325 189.115 13.8435C188.461 13.1368 187.569 12.7835 186.438 12.7835C185.307 12.7835 184.406 13.1368 183.735 13.8435C183.081 14.5325 182.755 15.5307 182.755 16.838V25H179.734V10.3985H182.755V12.068C183.249 11.4673 183.876 10.9992 184.636 10.6635C185.413 10.3278 186.235 10.16 187.101 10.16ZM210.326 17.3415C210.326 17.8892 210.29 18.3838 210.22 18.8255H199.063C199.151 19.9915 199.584 20.9278 200.362 21.6345C201.139 22.3412 202.093 22.6945 203.224 22.6945C204.849 22.6945 205.997 22.0143 206.669 20.654H209.928C209.486 21.9967 208.683 23.1008 207.517 23.9665C206.368 24.8145 204.937 25.2385 203.224 25.2385C201.828 25.2385 200.574 24.9293 199.461 24.311C198.365 23.675 197.5 22.7917 196.864 21.661C196.245 20.5127 195.936 19.1877 195.936 17.686C195.936 16.1843 196.236 14.8682 196.837 13.7375C197.455 12.5892 198.312 11.7058 199.408 11.0875C200.521 10.4692 201.793 10.16 203.224 10.16C204.602 10.16 205.829 10.4603 206.907 11.061C207.985 11.6617 208.824 12.5097 209.425 13.605C210.025 14.6827 210.326 15.9282 210.326 17.3415ZM207.172 16.3875C207.154 15.2745 206.757 14.3823 205.98 13.711C205.202 13.0397 204.239 12.704 203.091 12.704C202.049 12.704 201.157 13.0397 200.415 13.711C199.673 14.3647 199.231 15.2568 199.09 16.3875H207.172ZM212.292 17.686C212.292 16.1843 212.592 14.8682 213.193 13.7375C213.811 12.5892 214.659 11.7058 215.737 11.0875C216.814 10.4692 218.051 10.16 219.447 10.16C221.213 10.16 222.671 10.584 223.819 11.432C224.985 12.2623 225.771 13.4548 226.178 15.0095H222.918C222.653 14.2852 222.229 13.7198 221.646 13.3135C221.063 12.9072 220.33 12.704 219.447 12.704C218.21 12.704 217.221 13.1457 216.479 14.029C215.754 14.8947 215.392 16.1137 215.392 17.686C215.392 19.2583 215.754 20.4862 216.479 21.3695C217.221 22.2528 218.21 22.6945 219.447 22.6945C221.196 22.6945 222.353 21.926 222.918 20.389H226.178C225.754 21.873 224.959 23.0567 223.793 23.94C222.627 24.8057 221.178 25.2385 219.447 25.2385C218.051 25.2385 216.814 24.9293 215.737 24.311C214.659 23.675 213.811 22.7917 213.193 21.661C212.592 20.5127 212.292 19.1877 212.292 17.686ZM232.713 12.863V20.9455C232.713 21.4932 232.836 21.8907 233.084 22.138C233.349 22.3677 233.79 22.4825 234.409 22.4825H236.264V25H233.879C232.518 25 231.476 24.682 230.752 24.046C230.027 23.41 229.665 22.3765 229.665 20.9455V12.863H227.943V10.3985H229.665V6.768H232.713V10.3985H236.264V12.863H232.713Z" fill="#4597FF"/>
</svg>
