<svg width="118" height="36" viewBox="0 0 118 36" fill="none" xmlns="http://www.w3.org/2000/svg">
<rect x="2" y="2" width="32" height="32" rx="3.95703" fill="#4597FF"/>
<path d="M12.2939 26.3219C11.4516 26.3219 10.6887 26.1144 10.0051 25.6994C9.33373 25.2843 8.80273 24.6862 8.41211 23.9049C8.02148 23.1115 7.82617 22.1777 7.82617 21.1034C7.82617 19.248 8.2229 17.5329 9.01635 15.9582C9.8098 14.3713 10.9817 13.1018 12.532 12.1496C14.0822 11.1853 15.9438 10.7031 18.1166 10.7031C18.6781 10.7031 19.2763 10.7458 19.9111 10.8313C20.558 10.9167 21.144 11.0449 21.6689 11.2158C22.0106 11.3135 22.1815 11.5576 22.1815 11.9482C22.1815 12.2656 22.0595 12.5647 21.8153 12.8454C21.5834 13.1262 21.3087 13.2666 20.9914 13.2666C20.8937 13.2666 20.8205 13.2605 20.7716 13.2483C20.1369 13.1018 19.5937 12.998 19.142 12.937C18.6904 12.8638 18.2143 12.8271 17.7138 12.8271C16.1635 12.8271 14.8452 13.2055 13.7587 13.9624C12.6723 14.707 11.8606 15.6958 11.3235 16.9287C10.7864 18.1616 10.5178 19.4921 10.5178 20.9203C10.5178 21.9579 10.7192 22.7636 11.122 23.3373C11.5371 23.8988 12.0742 24.1796 12.7334 24.1796C13.478 24.1796 14.1311 23.8744 14.6926 23.2641C15.2541 22.6537 15.7668 21.665 16.2307 20.2978C16.6945 18.9306 17.1523 17.0752 17.6039 14.7314C17.6772 14.3896 17.8237 14.1577 18.0434 14.0356C18.2631 13.9136 18.5561 13.8525 18.9223 13.8525C19.789 13.8525 20.2223 14.1333 20.2223 14.6948C20.2223 14.7925 20.204 14.9145 20.1674 15.061C19.85 16.2451 19.5571 17.5573 19.2885 18.9977C19.0322 20.426 18.904 21.5124 18.904 22.257C18.904 22.9162 19.0016 23.3984 19.1969 23.7035C19.3923 23.9965 19.6913 24.143 20.0942 24.143C20.4848 24.143 20.8571 24.0148 21.2111 23.7585C21.5651 23.4899 22.0106 23.0382 22.5478 22.4035C22.6942 22.2326 22.859 22.1471 23.0421 22.1471C23.2008 22.1471 23.3229 22.2204 23.4083 22.3669C23.506 22.5133 23.5548 22.7148 23.5548 22.9711C23.5548 23.4472 23.4389 23.8256 23.2069 24.1064C22.6088 24.8266 22.0229 25.3759 21.4491 25.7543C20.8754 26.1327 20.1735 26.3219 19.3434 26.3219C18.4889 26.3219 17.7992 26.0778 17.2743 25.5895C16.7495 25.089 16.4199 24.3871 16.2856 23.4838C15.3823 25.3759 14.0517 26.3219 12.2939 26.3219Z" fill="#F7F7F9"/>
<path d="M26.6277 26.3219C26.0906 26.3219 25.6816 26.1754 25.4009 25.8825C25.1323 25.5895 24.9981 25.205 24.9981 24.7289C24.9981 24.1796 25.1506 23.7401 25.4558 23.4106C25.7732 23.081 26.2126 22.9162 26.7742 22.9162C27.3113 22.9162 27.7141 23.0505 27.9827 23.319C28.2634 23.5754 28.4038 23.9599 28.4038 24.4726C28.4038 25.0341 28.2451 25.4857 27.9277 25.8275C27.6103 26.1571 27.177 26.3219 26.6277 26.3219Z" fill="#F7F7F9"/>
<path d="M52.1307 23.1447H44.4567L43.1382 26.7702H40L46.5664 9H50.0474L56.6138 26.7702H53.4493L52.1307 23.1447ZM51.2869 20.7702L48.3069 12.5234L45.3006 20.7702H51.2869Z" fill="#4597FF"/>
<path d="M58.4668 19.7234C58.4668 18.2766 58.7657 17.0085 59.3634 15.9191C59.9788 14.8128 60.8226 13.9617 61.8951 13.366C62.9675 12.7702 64.1981 12.4723 65.587 12.4723C67.3451 12.4723 68.7955 12.8809 69.9383 13.6979C71.0986 14.4979 71.8809 15.6468 72.2853 17.1447H69.0416C68.7779 16.4468 68.356 15.9021 67.7758 15.5106C67.1957 15.1191 66.4661 14.9234 65.587 14.9234C64.3564 14.9234 63.3718 15.3489 62.6334 16.2C61.9126 17.034 61.5522 18.2085 61.5522 19.7234C61.5522 21.2383 61.9126 22.4213 62.6334 23.2723C63.3718 24.1234 64.3564 24.5489 65.587 24.5489C67.3275 24.5489 68.4791 23.8085 69.0416 22.3277H72.2853C71.8634 23.7574 71.0722 24.8979 69.9119 25.7489C68.7516 26.583 67.3099 27 65.587 27C64.1981 27 62.9675 26.7021 61.8951 26.1064C60.8226 25.4936 59.9788 24.6426 59.3634 23.5532C58.7657 22.4468 58.4668 21.1702 58.4668 19.7234Z" fill="#4597FF"/>
<path d="M92.8709 12.4723C94.0136 12.4723 95.0333 12.7021 95.9299 13.1617C96.8441 13.6213 97.5561 14.3021 98.066 15.2043C98.5934 16.1064 98.8571 17.1957 98.8571 18.4723V26.7702H95.8772V18.9064C95.8772 17.6468 95.5519 16.6851 94.9014 16.0213C94.2509 15.3404 93.3631 15 92.2379 15C91.1128 15 90.2162 15.3404 89.5481 16.0213C88.8976 16.6851 88.5724 17.6468 88.5724 18.9064V26.7702H85.5924V18.9064C85.5924 17.6468 85.2672 16.6851 84.6167 16.0213C83.9662 15.3404 83.0784 15 81.9532 15C80.828 15 79.9314 15.3404 79.2633 16.0213C78.6129 16.6851 78.2876 17.6468 78.2876 18.9064V26.7702H75.2813V12.7021H78.2876V14.3106C78.7799 13.7319 79.404 13.2809 80.16 12.9574C80.9159 12.634 81.7247 12.4723 82.5861 12.4723C83.7464 12.4723 84.7837 12.7106 85.6979 13.1872C86.6121 13.6638 87.3153 14.3532 87.8076 15.2553C88.2471 14.4043 88.9328 13.7319 89.8645 13.2383C90.7963 12.7277 91.7984 12.4723 92.8709 12.4723Z" fill="#4597FF"/>
<path d="M116 19.3915C116 19.9191 115.965 20.3957 115.895 20.8213H104.792C104.88 21.9447 105.311 22.8468 106.084 23.5277C106.858 24.2085 107.807 24.5489 108.933 24.5489C110.55 24.5489 111.693 23.8936 112.361 22.583H115.604C115.165 23.8766 114.365 24.9404 113.205 25.7745C112.062 26.5915 110.638 27 108.933 27C107.544 27 106.295 26.7021 105.188 26.1064C104.098 25.4936 103.236 24.6426 102.603 23.5532C101.988 22.4468 101.68 21.1702 101.68 19.7234C101.68 18.2766 101.979 17.0085 102.577 15.9191C103.192 14.8128 104.045 13.9617 105.135 13.366C106.243 12.7702 107.508 12.4723 108.933 12.4723C110.304 12.4723 111.526 12.7617 112.598 13.3404C113.671 13.9191 114.506 14.7362 115.103 15.7915C115.701 16.8298 116 18.0298 116 19.3915ZM112.862 18.4723C112.844 17.4 112.449 16.5404 111.675 15.8936C110.902 15.2468 109.943 14.9234 108.801 14.9234C107.763 14.9234 106.876 15.2468 106.137 15.8936C105.399 16.5234 104.959 17.383 104.819 18.4723H112.862Z" fill="#4597FF"/>
</svg>
