<svg width="52" height="52" viewBox="0 0 52 52" fill="none" xmlns="http://www.w3.org/2000/svg">
<g clip-path="url(#clip0_587_2754074)">
<path d="M47.3789 8.50109L27.8789 0.376086C27.2822 0.12218 26.6439 0 26.0061 0C25.3683 0 24.7305 0.121469 24.1313 0.375375L4.63227 8.50109C2.81633 9.2496 1.625 11.029 1.625 12.9079C1.625 39.1415 20.8609 51.9993 25.9898 51.9993C30.9969 51.9993 50.375 39.3344 50.375 12.9079C50.375 11.029 49.1867 9.2496 47.3789 8.50109ZM47.1148 13.0298C47.1148 35.9118 30.2352 48.7493 26.0102 48.7493C21.6633 48.6579 4.875 35.7696 4.875 12.9993C4.875 12.3391 5.26855 11.7551 5.86523 11.5012L25.3652 3.37624C25.5656 3.2922 25.7826 3.24766 26.0008 3.24766C26.2111 3.24766 26.4227 3.28902 26.6221 3.37624L46.1221 11.5012C47.0539 11.8923 47.1148 12.7759 47.1148 13.0298ZM34.125 18.4126C33.7092 18.4126 33.2934 18.5712 32.9763 18.8887L23.2883 28.579L19.0227 24.3134C18.7078 23.9883 18.2914 23.836 17.875 23.836C16.9468 23.836 16.25 24.595 16.25 25.461C16.25 25.8768 16.4086 26.2926 16.7261 26.6097L22.1435 32.026C22.4656 32.3368 22.882 32.4993 23.2883 32.4993C23.6945 32.4993 24.1199 32.3407 24.437 32.0232L35.2737 21.1864C35.5875 20.8704 35.75 20.454 35.75 20.0376C35.75 19.1743 35.0492 18.4126 34.125 18.4126Z" fill="black"/>
</g>
<defs>
<clipPath id="clip0_587_2754074">
<rect width="52" height="52" fill="white"/>
</clipPath>
</defs>
</svg>
