<svg width="36" height="36" viewBox="0 0 36 36" fill="none" xmlns="http://www.w3.org/2000/svg">
<path d="M0 18C0 8.05781 8.05781 0 18 0C27.9422 0 36 8.05781 36 18C36 27.9422 27.9422 36 18 36C8.05781 36 0 27.9422 0 18ZM26.1422 14.8922C26.9086 14.1258 26.9086 12.8742 26.1422 12.1078C25.3758 11.3414 24.1242 11.3414 23.3578 12.1078L15.75 19.7156L12.6422 16.6078C11.8758 15.8414 10.6242 15.8414 9.85781 16.6078C9.09141 17.3742 9.09141 18.6258 9.85781 19.3922L14.3578 23.8922C15.1242 24.6586 16.3758 24.6586 17.1422 23.8922L26.1422 14.8922Z" fill="#01B678"/>
</svg>
