
<svg width="50" height="50" viewBox="0 0 131 131" fill="none" xmlns="http://www.w3.org/2000/svg">
<path d="M82.8989 45.0337C82.6683 45.0337 82.4377 44.978 82.236 44.8666C76.702 42.1101 71.9174 40.9406 66.1528 40.9406C60.4747 40.9406 55.056 42.2493 50.1272 44.8666C49.4355 45.2286 48.5708 44.978 48.1673 44.3097C47.7926 43.6415 48.052 42.7783 48.7437 42.4163C54.1048 39.5484 59.9847 38.1562 66.1528 38.1562C72.3209 38.1562 77.682 39.4649 83.5618 42.3328C84.2824 42.7505 84.5418 43.5858 84.1671 44.254C83.9077 44.7552 83.4465 45.0337 82.8989 45.0337ZM41.6533 59.6516C41.3651 59.6516 41.0769 59.5681 40.8174 59.401C40.2122 58.9555 40.0104 58.0924 40.4716 57.452C43.325 53.5538 46.9567 50.491 51.2802 48.3471C60.3882 43.8364 71.9174 43.8085 80.9966 48.3192C85.32 50.4632 88.9517 53.4703 91.8052 57.3684C92.2663 57.981 92.0934 58.872 91.4593 59.3175C90.7964 59.763 89.9029 59.6238 89.4417 59.0391C86.8476 55.4751 83.5618 52.7185 79.6707 50.7973C71.3986 46.7043 60.8205 46.7043 52.5772 50.8252C48.6573 52.7742 45.3715 55.5586 42.7774 59.0391C42.5468 59.4567 42.1145 59.6516 41.6533 59.6516ZM59.6676 93.259C59.2929 93.259 58.9471 93.1198 58.6588 92.8414C56.1512 90.419 54.7966 88.8597 52.8654 85.4906C50.8766 82.0658 49.839 77.8893 49.839 73.4064C49.839 65.1368 57.16 58.3987 66.1528 58.3987C75.1455 58.3987 82.4666 65.1368 82.4666 73.4064C82.4666 73.7757 82.3147 74.1298 82.0445 74.3909C81.7742 74.6519 81.4076 74.7986 81.0254 74.7986C80.6432 74.7986 80.2766 74.6519 80.0064 74.3909C79.7361 74.1298 79.5843 73.7757 79.5843 73.4064C79.5843 66.6682 73.5603 61.183 66.1528 61.183C58.7453 61.183 52.7213 66.6682 52.7213 73.4064C52.7213 77.4159 53.6436 81.1192 55.4018 84.0984C57.2465 87.3283 58.5147 88.6927 60.7341 90.8645C61.2817 91.4213 61.2817 92.2845 60.7341 92.8414C60.3882 93.1198 60.0423 93.259 59.6676 93.259ZM80.3337 88.1079C76.9037 88.1079 73.8773 87.2726 71.3986 85.6298C67.1039 82.8176 64.5387 78.2512 64.5387 73.4064C64.5387 73.0372 64.6905 72.6831 64.9608 72.422C65.2311 72.1609 65.5976 72.0142 65.9798 72.0142C66.3621 72.0142 66.7286 72.1609 66.9989 72.422C67.2692 72.6831 67.421 73.0372 67.421 73.4064C67.421 77.3324 69.4962 81.0356 73.0126 83.3188C75.0591 84.6553 77.4514 85.2957 80.3337 85.2957C81.0254 85.2957 82.1783 85.2122 83.3312 85.0173C84.1095 84.8781 84.8877 85.3792 85.003 86.1589C85.1471 86.8828 84.6283 87.6346 83.8212 87.7738C82.1783 88.0801 80.7372 88.1079 80.3337 88.1079ZM74.5403 93.8438C74.425 93.8438 74.2808 93.8438 74.1656 93.8438C69.5827 92.5629 66.5851 90.9202 63.4434 87.9409C59.4082 84.0984 57.1889 78.9195 57.1889 73.4064C57.1889 68.8957 61.1664 65.2204 66.0663 65.2204C70.9662 65.2204 74.9438 68.8957 74.9438 73.4064C74.9438 76.3857 77.6819 78.8081 80.9389 78.8081C84.2536 78.8081 86.9341 76.3857 86.9341 73.4064C86.9341 62.9093 77.5667 54.3892 66.0375 54.3892C57.8518 54.3892 50.3002 58.7885 46.9855 65.6102C45.8615 67.8655 45.285 70.5107 45.285 73.4064C45.285 75.5782 45.4868 79.003 47.2161 83.458C47.5044 84.182 47.1297 84.9894 46.3803 85.24C45.6309 85.4906 44.795 85.1287 44.5356 84.4326C43.0945 80.785 42.4315 77.1375 42.4315 73.4064C42.4315 70.0652 43.0945 67.0302 44.3915 64.3851C48.2249 56.6167 56.7277 51.5769 66.0375 51.5769C79.1231 51.5769 89.8164 61.3501 89.8164 73.3786C89.8164 77.8893 85.8388 81.5647 80.9389 81.5647C76.039 81.5647 72.0615 77.8893 72.0615 73.3786C72.0615 70.3993 69.381 67.9769 66.0663 67.9769C62.7517 67.9769 60.0712 70.3993 60.0712 73.3786C60.0712 78.1399 61.9735 82.5949 65.461 85.9361C68.1992 88.5534 70.8221 90.0013 74.8861 91.0594C75.6643 91.2821 76.0967 92.0618 75.8949 92.7857C75.7508 93.4261 75.1455 93.8438 74.5403 93.8438Z" fill="black"/>
<circle cx="65.5" cy="65.5" r="64" stroke="url(#paint0_linear_2787_49026)" stroke-width="3" stroke-linecap="round"/>
<defs>
<linearGradient id="paint0_linear_2787_49026" x1="167.5" y1="65.9999" x2="0.196738" y2="77.4093" gradientUnits="userSpaceOnUse">
<stop stop-color="#9DE2FF"/>
<stop offset="1" stop-color="#4597FF"/>
</linearGradient>
</defs>
</svg>
